# xmcd
#
# Track frame offsets: 
#        150
#        24723
#        41967
#        62362
#        72554
#        90667
#        114424
#        140156
#        165860
#        183636
#        199090
#        217440
#        248427
#
# Disc length: 3941 seconds
#
# Revision: 0
# Processed by: cddbd v1.5.2PL0 Copyright (c) Steve Scherf et al.
# Submitted via: ExactAudioCopyFreeDBPlugin 1.0
#
DISCID=c20f630d
DTITLE=THE DEEP DARK WOODS - Jubilee
DYEAR=2013
DGENRE=Alternative
TTITLE0=Miles and miles
TTITLE1=18th of December
TTITLE2=Picture on my wall
TTITLE3=Red, red rose
TTITLE4=Gonna have a jubilee
TTITLE5=Pacing the room
TTITLE6=East St. Louis
TTITLE7=A voice is calling
TTITLE8=I took to whoring
TTITLE9=It's been a long time
TTITLE10=Bourbon Street
TTITLE11=The beater
TTITLE12=The same thing
EXTD=
EXTT0=
EXTT1=
EXTT2=
EXTT3=
EXTT4=
EXTT5=
EXTT6=
EXTT7=
EXTT8=
EXTT9=
EXTT10=
EXTT11=
EXTT12=
PLAYORDER=
